ISO-10303-21;
HEADER;
/* Generated by software containing ST-Developer
 * from STEP Tools, Inc. (www.steptools.com) 
 */

FILE_DESCRIPTION(
/* description */ (''),
/* implementation_level */ '2;1');

FILE_NAME(
/* name */ '',
/* time_stamp */ '2025-06-04T23:19:01+08:00',
/* author */ (''),
/* organization */ (''),
/* preprocessor_version */ 'ST-DEVELOPER v20.1',
/* originating_system */ 'Autodesk Translation Framework v14.4.0.0',
/* authorisation */ '');

FILE_SCHEMA (('AUTOMOTIVE_DESIGN { 1 0 10303 214 3 1 1 }'));
ENDSEC;

DATA;
#10=MECHANICAL_DESIGN_GEOMETRIC_PRESENTATION_REPRESENTATION('',(#13),#1114);
#11=SHAPE_REPRESENTATION_RELATIONSHIP('SRR','None',#1121,#12);
#12=ADVANCED_BREP_SHAPE_REPRESENTATION('',(#14),#1113);
#13=STYLED_ITEM('',(#1130),#14);
#14=MANIFOLD_SOLID_BREP('\X2\5B9E4F53\X0\1',#670);
#15=FACE_BOUND('',#111,.T.);
#16=FACE_BOUND('',#114,.T.);
#17=FACE_BOUND('',#117,.T.);
#18=FACE_BOUND('',#120,.T.);
#19=FACE_BOUND('',#122,.T.);
#20=FACE_BOUND('',#123,.T.);
#21=FACE_BOUND('',#124,.T.);
#22=FACE_BOUND('',#125,.T.);
#23=FACE_BOUND('',#126,.T.);
#24=FACE_BOUND('',#129,.T.);
#25=FACE_BOUND('',#130,.T.);
#26=FACE_BOUND('',#131,.T.);
#27=FACE_BOUND('',#132,.T.);
#28=FACE_BOUND('',#133,.T.);
#29=FACE_BOUND('',#134,.T.);
#30=FACE_BOUND('',#135,.T.);
#31=FACE_BOUND('',#136,.T.);
#32=FACE_BOUND('',#145,.T.);
#33=FACE_BOUND('',#146,.T.);
#34=FACE_BOUND('',#158,.T.);
#35=FACE_BOUND('',#159,.T.);
#36=CIRCLE('',#686,3.);
#37=CIRCLE('',#687,3.);
#38=CIRCLE('',#689,1.45);
#39=CIRCLE('',#691,3.);
#40=CIRCLE('',#692,3.);
#41=CIRCLE('',#694,1.45);
#42=CIRCLE('',#696,3.);
#43=CIRCLE('',#697,3.);
#44=CIRCLE('',#699,1.45);
#45=CIRCLE('',#701,3.);
#46=CIRCLE('',#702,3.);
#47=CIRCLE('',#704,1.45);
#48=CIRCLE('',#706,2.2);
#49=CIRCLE('',#707,2.2);
#50=CIRCLE('',#708,2.2);
#51=CIRCLE('',#709,2.2);
#52=CIRCLE('',#712,2.2);
#53=CIRCLE('',#713,2.2);
#54=CIRCLE('',#714,2.2);
#55=CIRCLE('',#715,2.2);
#56=CIRCLE('',#720,1.45);
#57=CIRCLE('',#722,1.45);
#58=CIRCLE('',#732,1.45);
#59=CIRCLE('',#734,1.45);
#60=CYLINDRICAL_SURFACE('',#685,3.);
#61=CYLINDRICAL_SURFACE('',#690,3.);
#62=CYLINDRICAL_SURFACE('',#695,3.);
#63=CYLINDRICAL_SURFACE('',#700,3.);
#64=CYLINDRICAL_SURFACE('',#719,1.45);
#65=CYLINDRICAL_SURFACE('',#721,1.45);
#66=CYLINDRICAL_SURFACE('',#731,1.45);
#67=CYLINDRICAL_SURFACE('',#733,1.45);
#68=CYLINDRICAL_SURFACE('',#739,2.2);
#69=CYLINDRICAL_SURFACE('',#740,2.2);
#70=CYLINDRICAL_SURFACE('',#741,2.2);
#71=CYLINDRICAL_SURFACE('',#742,2.2);
#72=FACE_OUTER_BOUND('',#108,.T.);
#73=FACE_OUTER_BOUND('',#109,.T.);
#74=FACE_OUTER_BOUND('',#110,.T.);
#75=FACE_OUTER_BOUND('',#112,.T.);
#76=FACE_OUTER_BOUND('',#113,.T.);
#77=FACE_OUTER_BOUND('',#115,.T.);
#78=FACE_OUTER_BOUND('',#116,.T.);
#79=FACE_OUTER_BOUND('',#118,.T.);
#80=FACE_OUTER_BOUND('',#119,.T.);
#81=FACE_OUTER_BOUND('',#121,.T.);
#82=FACE_OUTER_BOUND('',#127,.T.);
#83=FACE_OUTER_BOUND('',#128,.T.);
#84=FACE_OUTER_BOUND('',#137,.T.);
#85=FACE_OUTER_BOUND('',#138,.T.);
#86=FACE_OUTER_BOUND('',#139,.T.);
#87=FACE_OUTER_BOUND('',#140,.T.);
#88=FACE_OUTER_BOUND('',#141,.T.);
#89=FACE_OUTER_BOUND('',#142,.T.);
#90=FACE_OUTER_BOUND('',#143,.T.);
#91=FACE_OUTER_BOUND('',#144,.T.);
#92=FACE_OUTER_BOUND('',#147,.T.);
#93=FACE_OUTER_BOUND('',#148,.T.);
#94=FACE_OUTER_BOUND('',#149,.T.);
#95=FACE_OUTER_BOUND('',#150,.T.);
#96=FACE_OUTER_BOUND('',#151,.T.);
#97=FACE_OUTER_BOUND('',#152,.T.);
#98=FACE_OUTER_BOUND('',#153,.T.);
#99=FACE_OUTER_BOUND('',#154,.T.);
#100=FACE_OUTER_BOUND('',#155,.T.);
#101=FACE_OUTER_BOUND('',#156,.T.);
#102=FACE_OUTER_BOUND('',#157,.T.);
#103=FACE_OUTER_BOUND('',#160,.T.);
#104=FACE_OUTER_BOUND('',#161,.T.);
#105=FACE_OUTER_BOUND('',#162,.T.);
#106=FACE_OUTER_BOUND('',#163,.T.);
#107=FACE_OUTER_BOUND('',#164,.T.);
#108=EDGE_LOOP('',(#436,#437,#438,#439,#440,#441,#442,#443));
#109=EDGE_LOOP('',(#444,#445,#446,#447));
#110=EDGE_LOOP('',(#448));
#111=EDGE_LOOP('',(#449));
#112=EDGE_LOOP('',(#450,#451,#452,#453));
#113=EDGE_LOOP('',(#454));
#114=EDGE_LOOP('',(#455));
#115=EDGE_LOOP('',(#456,#457,#458,#459));
#116=EDGE_LOOP('',(#460));
#117=EDGE_LOOP('',(#461));
#118=EDGE_LOOP('',(#462,#463,#464,#465));
#119=EDGE_LOOP('',(#466));
#120=EDGE_LOOP('',(#467));
#121=EDGE_LOOP('',(#468,#469,#470,#471,#472,#473,#474,#475,#476,#477));
#122=EDGE_LOOP('',(#478));
#123=EDGE_LOOP('',(#479));
#124=EDGE_LOOP('',(#480));
#125=EDGE_LOOP('',(#481));
#126=EDGE_LOOP('',(#482,#483,#484,#485));
#127=EDGE_LOOP('',(#486,#487,#488,#489));
#128=EDGE_LOOP('',(#490,#491,#492,#493,#494,#495));
#129=EDGE_LOOP('',(#496));
#130=EDGE_LOOP('',(#497));
#131=EDGE_LOOP('',(#498));
#132=EDGE_LOOP('',(#499));
#133=EDGE_LOOP('',(#500));
#134=EDGE_LOOP('',(#501));
#135=EDGE_LOOP('',(#502));
#136=EDGE_LOOP('',(#503));
#137=EDGE_LOOP('',(#504,#505,#506,#507));
#138=EDGE_LOOP('',(#508,#509,#510,#511));
#139=EDGE_LOOP('',(#512,#513,#514,#515));
#140=EDGE_LOOP('',(#516,#517,#518,#519));
#141=EDGE_LOOP('',(#520,#521,#522,#523));
#142=EDGE_LOOP('',(#524,#525,#526,#527));
#143=EDGE_LOOP('',(#528,#529,#530,#531));
#144=EDGE_LOOP('',(#532,#533,#534,#535,#536,#537));
#145=EDGE_LOOP('',(#538));
#146=EDGE_LOOP('',(#539));
#147=EDGE_LOOP('',(#540,#541,#542,#543));
#148=EDGE_LOOP('',(#544,#545,#546,#547));
#149=EDGE_LOOP('',(#548,#549,#550,#551));
#150=EDGE_LOOP('',(#552,#553,#554,#555));
#151=EDGE_LOOP('',(#556,#557,#558,#559));
#152=EDGE_LOOP('',(#560,#561,#562,#563));
#153=EDGE_LOOP('',(#564,#565,#566,#567));
#154=EDGE_LOOP('',(#568,#569,#570,#571));
#155=EDGE_LOOP('',(#572,#573,#574,#575));
#156=EDGE_LOOP('',(#576,#577,#578,#579,#580,#581));
#157=EDGE_LOOP('',(#582,#583,#584,#585));
#158=EDGE_LOOP('',(#586));
#159=EDGE_LOOP('',(#587));
#160=EDGE_LOOP('',(#588,#589,#590,#591));
#161=EDGE_LOOP('',(#592,#593,#594,#595));
#162=EDGE_LOOP('',(#596,#597,#598,#599));
#163=EDGE_LOOP('',(#600,#601,#602,#603));
#164=EDGE_LOOP('',(#604,#605,#606,#607,#608,#609));
#165=LINE('',#933,#228);
#166=LINE('',#935,#229);
#167=LINE('',#937,#230);
#168=LINE('',#939,#231);
#169=LINE('',#941,#232);
#170=LINE('',#943,#233);
#171=LINE('',#945,#234);
#172=LINE('',#946,#235);
#173=LINE('',#951,#236);
#174=LINE('',#960,#237);
#175=LINE('',#969,#238);
#176=LINE('',#978,#239);
#177=LINE('',#985,#240);
#178=LINE('',#987,#241);
#179=LINE('',#989,#242);
#180=LINE('',#991,#243);
#181=LINE('',#993,#244);
#182=LINE('',#995,#245);
#183=LINE('',#997,#246);
#184=LINE('',#999,#247);
#185=LINE('',#1000,#248);
#186=LINE('',#1011,#249);
#187=LINE('',#1013,#250);
#188=LINE('',#1015,#251);
#189=LINE('',#1016,#252);
#190=LINE('',#1020,#253);
#191=LINE('',#1021,#254);
#192=LINE('',#1022,#255);
#193=LINE('',#1024,#256);
#194=LINE('',#1026,#257);
#195=LINE('',#1028,#258);
#196=LINE('',#1029,#259);
#197=LINE('',#1039,#260);
#198=LINE('',#1042,#261);
#199=LINE('',#1043,#262);
#200=LINE('',#1046,#263);
#201=LINE('',#1048,#264);
#202=LINE('',#1049,#265);
#203=LINE('',#1053,#266);
#204=LINE('',#1057,#267);
#205=LINE('',#1060,#268);
#206=LINE('',#1061,#269);
#207=LINE('',#1063,#270);
#208=LINE('',#1065,#271);
#209=LINE('',#1068,#272);
#210=LINE('',#1070,#273);
#211=LINE('',#1071,#274);
#212=LINE('',#1074,#275);
#213=LINE('',#1075,#276);
#214=LINE('',#1078,#277);
#215=LINE('',#1079,#278);
#216=LINE('',#1081,#279);
#217=LINE('',#1086,#280);
#218=LINE('',#1090,#281);
#219=LINE('',#1093,#282);
#220=LINE('',#1095,#283);
#221=LINE('',#1096,#284);
#222=LINE('',#1098,#285);
#223=LINE('',#1100,#286);
#224=LINE('',#1103,#287);
#225=LINE('',#1105,#288);
#226=LINE('',#1107,#289);
#227=LINE('',#1109,#290);
#228=VECTOR('',#748,10.);
#229=VECTOR('',#749,10.);
#230=VECTOR('',#750,10.);
#231=VECTOR('',#751,10.);
#232=VECTOR('',#752,10.);
#233=VECTOR('',#753,10.);
#234=VECTOR('',#754,10.);
#235=VECTOR('',#755,10.);
#236=VECTOR('',#760,3.);
#237=VECTOR('',#771,3.);
#238=VECTOR('',#782,3.);
#239=VECTOR('',#793,3.);
#240=VECTOR('',#802,10.);
#241=VECTOR('',#803,10.);
#242=VECTOR('',#804,10.);
#243=VECTOR('',#805,10.);
#244=VECTOR('',#806,10.);
#245=VECTOR('',#807,10.);
#246=VECTOR('',#808,10.);
#247=VECTOR('',#809,10.);
#248=VECTOR('',#810,10.);
#249=VECTOR('',#819,10.);
#250=VECTOR('',#820,10.);
#251=VECTOR('',#821,10.);
#252=VECTOR('',#822,10.);
#253=VECTOR('',#825,10.);
#254=VECTOR('',#826,10.);
#255=VECTOR('',#827,10.);
#256=VECTOR('',#830,10.);
#257=VECTOR('',#831,10.);
#258=VECTOR('',#832,10.);
#259=VECTOR('',#833,10.);
#260=VECTOR('',#844,10.);
#261=VECTOR('',#847,10.);
#262=VECTOR('',#848,10.);
#263=VECTOR('',#851,10.);
#264=VECTOR('',#852,10.);
#265=VECTOR('',#853,10.);
#266=VECTOR('',#858,1.45);
#267=VECTOR('',#863,1.45);
#268=VECTOR('',#866,10.);
#269=VECTOR('',#867,10.);
#270=VECTOR('',#870,10.);
#271=VECTOR('',#873,10.);
#272=VECTOR('',#876,10.);
#273=VECTOR('',#877,10.);
#274=VECTOR('',#878,10.);
#275=VECTOR('',#881,10.);
#276=VECTOR('',#882,10.);
#277=VECTOR('',#885,10.);
#278=VECTOR('',#886,10.);
#279=VECTOR('',#889,10.);
#280=VECTOR('',#896,1.45);
#281=VECTOR('',#901,1.45);
#282=VECTOR('',#904,10.);
#283=VECTOR('',#905,10.);
#284=VECTOR('',#906,10.);
#285=VECTOR('',#909,10.);
#286=VECTOR('',#912,10.);
#287=VECTOR('',#917,2.2);
#288=VECTOR('',#920,2.2);
#289=VECTOR('',#923,2.2);
#290=VECTOR('',#926,2.2);
#291=VERTEX_POINT('',#931);
#292=VERTEX_POINT('',#932);
#293=VERTEX_POINT('',#934);
#294=VERTEX_POINT('',#936);
#295=VERTEX_POINT('',#938);
#296=VERTEX_POINT('',#940);
#297=VERTEX_POINT('',#942);
#298=VERTEX_POINT('',#944);
#299=VERTEX_POINT('',#948);
#300=VERTEX_POINT('',#950);
#301=VERTEX_POINT('',#954);
#302=VERTEX_POINT('',#957);
#303=VERTEX_POINT('',#959);
#304=VERTEX_POINT('',#963);
#305=VERTEX_POINT('',#966);
#306=VERTEX_POINT('',#968);
#307=VERTEX_POINT('',#972);
#308=VERTEX_POINT('',#975);
#309=VERTEX_POINT('',#977);
#310=VERTEX_POINT('',#981);
#311=VERTEX_POINT('',#984);
#312=VERTEX_POINT('',#986);
#313=VERTEX_POINT('',#988);
#314=VERTEX_POINT('',#990);
#315=VERTEX_POINT('',#992);
#316=VERTEX_POINT('',#994);
#317=VERTEX_POINT('',#996);
#318=VERTEX_POINT('',#998);
#319=VERTEX_POINT('',#1001);
#320=VERTEX_POINT('',#1003);
#321=VERTEX_POINT('',#1005);
#322=VERTEX_POINT('',#1007);
#323=VERTEX_POINT('',#1009);
#324=VERTEX_POINT('',#1010);
#325=VERTEX_POINT('',#1012);
#326=VERTEX_POINT('',#1014);
#327=VERTEX_POINT('',#1018);
#328=VERTEX_POINT('',#1019);
#329=VERTEX_POINT('',#1025);
#330=VERTEX_POINT('',#1027);
#331=VERTEX_POINT('',#1030);
#332=VERTEX_POINT('',#1032);
#333=VERTEX_POINT('',#1034);
#334=VERTEX_POINT('',#1036);
#335=VERTEX_POINT('',#1041);
#336=VERTEX_POINT('',#1045);
#337=VERTEX_POINT('',#1047);
#338=VERTEX_POINT('',#1051);
#339=VERTEX_POINT('',#1055);
#340=VERTEX_POINT('',#1059);
#341=VERTEX_POINT('',#1067);
#342=VERTEX_POINT('',#1069);
#343=VERTEX_POINT('',#1073);
#344=VERTEX_POINT('',#1077);
#345=VERTEX_POINT('',#1084);
#346=VERTEX_POINT('',#1088);
#347=VERTEX_POINT('',#1092);
#348=VERTEX_POINT('',#1094);
#349=EDGE_CURVE('',#291,#292,#165,.T.);
#350=EDGE_CURVE('',#292,#293,#166,.T.);
#351=EDGE_CURVE('',#293,#294,#167,.T.);
#352=EDGE_CURVE('',#294,#295,#168,.T.);
#353=EDGE_CURVE('',#295,#296,#169,.T.);
#354=EDGE_CURVE('',#296,#297,#170,.T.);
#355=EDGE_CURVE('',#297,#298,#171,.T.);
#356=EDGE_CURVE('',#298,#291,#172,.T.);
#357=EDGE_CURVE('',#299,#299,#36,.T.);
#358=EDGE_CURVE('',#299,#300,#173,.T.);
#359=EDGE_CURVE('',#300,#300,#37,.T.);
#360=EDGE_CURVE('',#301,#301,#38,.T.);
#361=EDGE_CURVE('',#302,#302,#39,.T.);
#362=EDGE_CURVE('',#302,#303,#174,.T.);
#363=EDGE_CURVE('',#303,#303,#40,.T.);
#364=EDGE_CURVE('',#304,#304,#41,.T.);
#365=EDGE_CURVE('',#305,#305,#42,.T.);
#366=EDGE_CURVE('',#305,#306,#175,.T.);
#367=EDGE_CURVE('',#306,#306,#43,.T.);
#368=EDGE_CURVE('',#307,#307,#44,.T.);
#369=EDGE_CURVE('',#308,#308,#45,.T.);
#370=EDGE_CURVE('',#308,#309,#176,.T.);
#371=EDGE_CURVE('',#309,#309,#46,.T.);
#372=EDGE_CURVE('',#310,#310,#47,.T.);
#373=EDGE_CURVE('',#298,#311,#177,.T.);
#374=EDGE_CURVE('',#311,#312,#178,.T.);
#375=EDGE_CURVE('',#312,#313,#179,.T.);
#376=EDGE_CURVE('',#314,#313,#180,.T.);
#377=EDGE_CURVE('',#314,#315,#181,.T.);
#378=EDGE_CURVE('',#315,#316,#182,.T.);
#379=EDGE_CURVE('',#316,#317,#183,.T.);
#380=EDGE_CURVE('',#317,#318,#184,.T.);
#381=EDGE_CURVE('',#318,#291,#185,.T.);
#382=EDGE_CURVE('',#319,#319,#48,.T.);
#383=EDGE_CURVE('',#320,#320,#49,.T.);
#384=EDGE_CURVE('',#321,#321,#50,.T.);
#385=EDGE_CURVE('',#322,#322,#51,.T.);
#386=EDGE_CURVE('',#323,#324,#186,.T.);
#387=EDGE_CURVE('',#324,#325,#187,.T.);
#388=EDGE_CURVE('',#325,#326,#188,.T.);
#389=EDGE_CURVE('',#326,#323,#189,.T.);
#390=EDGE_CURVE('',#327,#328,#190,.T.);
#391=EDGE_CURVE('',#316,#327,#191,.T.);
#392=EDGE_CURVE('',#328,#315,#192,.T.);
#393=EDGE_CURVE('',#294,#327,#193,.T.);
#394=EDGE_CURVE('',#329,#328,#194,.T.);
#395=EDGE_CURVE('',#329,#330,#195,.T.);
#396=EDGE_CURVE('',#295,#330,#196,.T.);
#397=EDGE_CURVE('',#331,#331,#52,.T.);
#398=EDGE_CURVE('',#332,#332,#53,.T.);
#399=EDGE_CURVE('',#333,#333,#54,.T.);
#400=EDGE_CURVE('',#334,#334,#55,.T.);
#401=EDGE_CURVE('',#329,#314,#197,.T.);
#402=EDGE_CURVE('',#330,#335,#198,.T.);
#403=EDGE_CURVE('',#335,#296,#199,.T.);
#404=EDGE_CURVE('',#336,#312,#200,.T.);
#405=EDGE_CURVE('',#336,#337,#201,.T.);
#406=EDGE_CURVE('',#313,#337,#202,.T.);
#407=EDGE_CURVE('',#338,#338,#56,.T.);
#408=EDGE_CURVE('',#338,#304,#203,.T.);
#409=EDGE_CURVE('',#339,#339,#57,.T.);
#410=EDGE_CURVE('',#339,#301,#204,.T.);
#411=EDGE_CURVE('',#340,#297,#205,.T.);
#412=EDGE_CURVE('',#311,#340,#206,.T.);
#413=EDGE_CURVE('',#340,#336,#207,.T.);
#414=EDGE_CURVE('',#337,#335,#208,.T.);
#415=EDGE_CURVE('',#323,#341,#209,.T.);
#416=EDGE_CURVE('',#342,#341,#210,.T.);
#417=EDGE_CURVE('',#324,#342,#211,.T.);
#418=EDGE_CURVE('',#343,#342,#212,.T.);
#419=EDGE_CURVE('',#325,#343,#213,.T.);
#420=EDGE_CURVE('',#344,#343,#214,.T.);
#421=EDGE_CURVE('',#326,#344,#215,.T.);
#422=EDGE_CURVE('',#341,#344,#216,.T.);
#423=EDGE_CURVE('',#345,#345,#58,.T.);
#424=EDGE_CURVE('',#345,#307,#217,.T.);
#425=EDGE_CURVE('',#346,#346,#59,.T.);
#426=EDGE_CURVE('',#346,#310,#218,.T.);
#427=EDGE_CURVE('',#317,#347,#219,.T.);
#428=EDGE_CURVE('',#348,#347,#220,.T.);
#429=EDGE_CURVE('',#318,#348,#221,.T.);
#430=EDGE_CURVE('',#348,#292,#222,.T.);
#431=EDGE_CURVE('',#347,#293,#223,.T.);
#432=EDGE_CURVE('',#319,#331,#224,.T.);
#433=EDGE_CURVE('',#320,#332,#225,.T.);
#434=EDGE_CURVE('',#321,#333,#226,.T.);
#435=EDGE_CURVE('',#322,#334,#227,.T.);
#436=ORIENTED_EDGE('',*,*,#349,.T.);
#437=ORIENTED_EDGE('',*,*,#350,.T.);
#438=ORIENTED_EDGE('',*,*,#351,.T.);
#439=ORIENTED_EDGE('',*,*,#352,.T.);
#440=ORIENTED_EDGE('',*,*,#353,.T.);
#441=ORIENTED_EDGE('',*,*,#354,.T.);
#442=ORIENTED_EDGE('',*,*,#355,.T.);
#443=ORIENTED_EDGE('',*,*,#356,.T.);
#444=ORIENTED_EDGE('',*,*,#357,.F.);
#445=ORIENTED_EDGE('',*,*,#358,.T.);
#446=ORIENTED_EDGE('',*,*,#359,.T.);
#447=ORIENTED_EDGE('',*,*,#358,.F.);
#448=ORIENTED_EDGE('',*,*,#359,.F.);
#449=ORIENTED_EDGE('',*,*,#360,.F.);
#450=ORIENTED_EDGE('',*,*,#361,.F.);
#451=ORIENTED_EDGE('',*,*,#362,.T.);
#452=ORIENTED_EDGE('',*,*,#363,.T.);
#453=ORIENTED_EDGE('',*,*,#362,.F.);
#454=ORIENTED_EDGE('',*,*,#363,.F.);
#455=ORIENTED_EDGE('',*,*,#364,.F.);
#456=ORIENTED_EDGE('',*,*,#365,.F.);
#457=ORIENTED_EDGE('',*,*,#366,.T.);
#458=ORIENTED_EDGE('',*,*,#367,.T.);
#459=ORIENTED_EDGE('',*,*,#366,.F.);
#460=ORIENTED_EDGE('',*,*,#367,.F.);
#461=ORIENTED_EDGE('',*,*,#368,.F.);
#462=ORIENTED_EDGE('',*,*,#369,.F.);
#463=ORIENTED_EDGE('',*,*,#370,.T.);
#464=ORIENTED_EDGE('',*,*,#371,.T.);
#465=ORIENTED_EDGE('',*,*,#370,.F.);
#466=ORIENTED_EDGE('',*,*,#371,.F.);
#467=ORIENTED_EDGE('',*,*,#372,.F.);
#468=ORIENTED_EDGE('',*,*,#373,.T.);
#469=ORIENTED_EDGE('',*,*,#374,.T.);
#470=ORIENTED_EDGE('',*,*,#375,.T.);
#471=ORIENTED_EDGE('',*,*,#376,.F.);
#472=ORIENTED_EDGE('',*,*,#377,.T.);
#473=ORIENTED_EDGE('',*,*,#378,.T.);
#474=ORIENTED_EDGE('',*,*,#379,.T.);
#475=ORIENTED_EDGE('',*,*,#380,.T.);
#476=ORIENTED_EDGE('',*,*,#381,.T.);
#477=ORIENTED_EDGE('',*,*,#356,.F.);
#478=ORIENTED_EDGE('',*,*,#382,.T.);
#479=ORIENTED_EDGE('',*,*,#383,.T.);
#480=ORIENTED_EDGE('',*,*,#384,.T.);
#481=ORIENTED_EDGE('',*,*,#385,.T.);
#482=ORIENTED_EDGE('',*,*,#386,.T.);
#483=ORIENTED_EDGE('',*,*,#387,.T.);
#484=ORIENTED_EDGE('',*,*,#388,.T.);
#485=ORIENTED_EDGE('',*,*,#389,.T.);
#486=ORIENTED_EDGE('',*,*,#390,.F.);
#487=ORIENTED_EDGE('',*,*,#391,.F.);
#488=ORIENTED_EDGE('',*,*,#378,.F.);
#489=ORIENTED_EDGE('',*,*,#392,.F.);
#490=ORIENTED_EDGE('',*,*,#393,.T.);
#491=ORIENTED_EDGE('',*,*,#390,.T.);
#492=ORIENTED_EDGE('',*,*,#394,.F.);
#493=ORIENTED_EDGE('',*,*,#395,.T.);
#494=ORIENTED_EDGE('',*,*,#396,.F.);
#495=ORIENTED_EDGE('',*,*,#352,.F.);
#496=ORIENTED_EDGE('',*,*,#357,.T.);
#497=ORIENTED_EDGE('',*,*,#361,.T.);
#498=ORIENTED_EDGE('',*,*,#365,.T.);
#499=ORIENTED_EDGE('',*,*,#369,.T.);
#500=ORIENTED_EDGE('',*,*,#397,.F.);
#501=ORIENTED_EDGE('',*,*,#398,.F.);
#502=ORIENTED_EDGE('',*,*,#399,.F.);
#503=ORIENTED_EDGE('',*,*,#400,.F.);
#504=ORIENTED_EDGE('',*,*,#392,.T.);
#505=ORIENTED_EDGE('',*,*,#377,.F.);
#506=ORIENTED_EDGE('',*,*,#401,.F.);
#507=ORIENTED_EDGE('',*,*,#394,.T.);
#508=ORIENTED_EDGE('',*,*,#396,.T.);
#509=ORIENTED_EDGE('',*,*,#402,.T.);
#510=ORIENTED_EDGE('',*,*,#403,.T.);
#511=ORIENTED_EDGE('',*,*,#353,.F.);
#512=ORIENTED_EDGE('',*,*,#404,.F.);
#513=ORIENTED_EDGE('',*,*,#405,.T.);
#514=ORIENTED_EDGE('',*,*,#406,.F.);
#515=ORIENTED_EDGE('',*,*,#375,.F.);
#516=ORIENTED_EDGE('',*,*,#407,.F.);
#517=ORIENTED_EDGE('',*,*,#408,.T.);
#518=ORIENTED_EDGE('',*,*,#364,.T.);
#519=ORIENTED_EDGE('',*,*,#408,.F.);
#520=ORIENTED_EDGE('',*,*,#409,.F.);
#521=ORIENTED_EDGE('',*,*,#410,.T.);
#522=ORIENTED_EDGE('',*,*,#360,.T.);
#523=ORIENTED_EDGE('',*,*,#410,.F.);
#524=ORIENTED_EDGE('',*,*,#373,.F.);
#525=ORIENTED_EDGE('',*,*,#355,.F.);
#526=ORIENTED_EDGE('',*,*,#411,.F.);
#527=ORIENTED_EDGE('',*,*,#412,.F.);
#528=ORIENTED_EDGE('',*,*,#404,.T.);
#529=ORIENTED_EDGE('',*,*,#374,.F.);
#530=ORIENTED_EDGE('',*,*,#412,.T.);
#531=ORIENTED_EDGE('',*,*,#413,.T.);
#532=ORIENTED_EDGE('',*,*,#403,.F.);
#533=ORIENTED_EDGE('',*,*,#414,.F.);
#534=ORIENTED_EDGE('',*,*,#405,.F.);
#535=ORIENTED_EDGE('',*,*,#413,.F.);
#536=ORIENTED_EDGE('',*,*,#411,.T.);
#537=ORIENTED_EDGE('',*,*,#354,.F.);
#538=ORIENTED_EDGE('',*,*,#409,.T.);
#539=ORIENTED_EDGE('',*,*,#407,.T.);
#540=ORIENTED_EDGE('',*,*,#386,.F.);
#541=ORIENTED_EDGE('',*,*,#415,.T.);
#542=ORIENTED_EDGE('',*,*,#416,.F.);
#543=ORIENTED_EDGE('',*,*,#417,.F.);
#544=ORIENTED_EDGE('',*,*,#387,.F.);
#545=ORIENTED_EDGE('',*,*,#417,.T.);
#546=ORIENTED_EDGE('',*,*,#418,.F.);
#547=ORIENTED_EDGE('',*,*,#419,.F.);
#548=ORIENTED_EDGE('',*,*,#388,.F.);
#549=ORIENTED_EDGE('',*,*,#419,.T.);
#550=ORIENTED_EDGE('',*,*,#420,.F.);
#551=ORIENTED_EDGE('',*,*,#421,.F.);
#552=ORIENTED_EDGE('',*,*,#389,.F.);
#553=ORIENTED_EDGE('',*,*,#421,.T.);
#554=ORIENTED_EDGE('',*,*,#422,.F.);
#555=ORIENTED_EDGE('',*,*,#415,.F.);
#556=ORIENTED_EDGE('',*,*,#422,.T.);
#557=ORIENTED_EDGE('',*,*,#420,.T.);
#558=ORIENTED_EDGE('',*,*,#418,.T.);
#559=ORIENTED_EDGE('',*,*,#416,.T.);
#560=ORIENTED_EDGE('',*,*,#423,.F.);
#561=ORIENTED_EDGE('',*,*,#424,.T.);
#562=ORIENTED_EDGE('',*,*,#368,.T.);
#563=ORIENTED_EDGE('',*,*,#424,.F.);
#564=ORIENTED_EDGE('',*,*,#425,.F.);
#565=ORIENTED_EDGE('',*,*,#426,.T.);
#566=ORIENTED_EDGE('',*,*,#372,.T.);
#567=ORIENTED_EDGE('',*,*,#426,.F.);
#568=ORIENTED_EDGE('',*,*,#380,.F.);
#569=ORIENTED_EDGE('',*,*,#427,.T.);
#570=ORIENTED_EDGE('',*,*,#428,.F.);
#571=ORIENTED_EDGE('',*,*,#429,.F.);
#572=ORIENTED_EDGE('',*,*,#381,.F.);
#573=ORIENTED_EDGE('',*,*,#429,.T.);
#574=ORIENTED_EDGE('',*,*,#430,.T.);
#575=ORIENTED_EDGE('',*,*,#349,.F.);
#576=ORIENTED_EDGE('',*,*,#431,.F.);
#577=ORIENTED_EDGE('',*,*,#427,.F.);
#578=ORIENTED_EDGE('',*,*,#379,.F.);
#579=ORIENTED_EDGE('',*,*,#391,.T.);
#580=ORIENTED_EDGE('',*,*,#393,.F.);
#581=ORIENTED_EDGE('',*,*,#351,.F.);
#582=ORIENTED_EDGE('',*,*,#431,.T.);
#583=ORIENTED_EDGE('',*,*,#350,.F.);
#584=ORIENTED_EDGE('',*,*,#430,.F.);
#585=ORIENTED_EDGE('',*,*,#428,.T.);
#586=ORIENTED_EDGE('',*,*,#425,.T.);
#587=ORIENTED_EDGE('',*,*,#423,.T.);
#588=ORIENTED_EDGE('',*,*,#382,.F.);
#589=ORIENTED_EDGE('',*,*,#432,.T.);
#590=ORIENTED_EDGE('',*,*,#397,.T.);
#591=ORIENTED_EDGE('',*,*,#432,.F.);
#592=ORIENTED_EDGE('',*,*,#383,.F.);
#593=ORIENTED_EDGE('',*,*,#433,.T.);
#594=ORIENTED_EDGE('',*,*,#398,.T.);
#595=ORIENTED_EDGE('',*,*,#433,.F.);
#596=ORIENTED_EDGE('',*,*,#384,.F.);
#597=ORIENTED_EDGE('',*,*,#434,.T.);
#598=ORIENTED_EDGE('',*,*,#399,.T.);
#599=ORIENTED_EDGE('',*,*,#434,.F.);
#600=ORIENTED_EDGE('',*,*,#385,.F.);
#601=ORIENTED_EDGE('',*,*,#435,.T.);
#602=ORIENTED_EDGE('',*,*,#400,.T.);
#603=ORIENTED_EDGE('',*,*,#435,.F.);
#604=ORIENTED_EDGE('',*,*,#395,.F.);
#605=ORIENTED_EDGE('',*,*,#401,.T.);
#606=ORIENTED_EDGE('',*,*,#376,.T.);
#607=ORIENTED_EDGE('',*,*,#406,.T.);
#608=ORIENTED_EDGE('',*,*,#414,.T.);
#609=ORIENTED_EDGE('',*,*,#402,.F.);
#610=PLANE('',#684);
#611=PLANE('',#688);
#612=PLANE('',#693);
#613=PLANE('',#698);
#614=PLANE('',#703);
#615=PLANE('',#705);
#616=PLANE('',#710);
#617=PLANE('',#711);
#618=PLANE('',#716);
#619=PLANE('',#717);
#620=PLANE('',#718);
#621=PLANE('',#723);
#622=PLANE('',#724);
#623=PLANE('',#725);
#624=PLANE('',#726);
#625=PLANE('',#727);
#626=PLANE('',#728);
#627=PLANE('',#729);
#628=PLANE('',#730);
#629=PLANE('',#735);
#630=PLANE('',#736);
#631=PLANE('',#737);
#632=PLANE('',#738);
#633=PLANE('',#743);
#634=ADVANCED_FACE('',(#72),#610,.T.);
#635=ADVANCED_FACE('',(#73),#60,.F.);
#636=ADVANCED_FACE('',(#74,#15),#611,.T.);
#637=ADVANCED_FACE('',(#75),#61,.F.);
#638=ADVANCED_FACE('',(#76,#16),#612,.T.);
#639=ADVANCED_FACE('',(#77),#62,.F.);
#640=ADVANCED_FACE('',(#78,#17),#613,.T.);
#641=ADVANCED_FACE('',(#79),#63,.F.);
#642=ADVANCED_FACE('',(#80,#18),#614,.T.);
#643=ADVANCED_FACE('',(#81,#19,#20,#21,#22,#23),#615,.T.);
#644=ADVANCED_FACE('',(#82),#616,.F.);
#645=ADVANCED_FACE('',(#83,#24,#25,#26,#27,#28,#29,#30,#31),#617,.F.);
#646=ADVANCED_FACE('',(#84),#618,.T.);
#647=ADVANCED_FACE('',(#85),#619,.T.);
#648=ADVANCED_FACE('',(#86),#620,.T.);
#649=ADVANCED_FACE('',(#87),#64,.F.);
#650=ADVANCED_FACE('',(#88),#65,.F.);
#651=ADVANCED_FACE('',(#89),#621,.T.);
#652=ADVANCED_FACE('',(#90),#622,.T.);
#653=ADVANCED_FACE('',(#91,#32,#33),#623,.T.);
#654=ADVANCED_FACE('',(#92),#624,.T.);
#655=ADVANCED_FACE('',(#93),#625,.T.);
#656=ADVANCED_FACE('',(#94),#626,.T.);
#657=ADVANCED_FACE('',(#95),#627,.T.);
#658=ADVANCED_FACE('',(#96),#628,.T.);
#659=ADVANCED_FACE('',(#97),#66,.F.);
#660=ADVANCED_FACE('',(#98),#67,.F.);
#661=ADVANCED_FACE('',(#99),#629,.T.);
#662=ADVANCED_FACE('',(#100),#630,.T.);
#663=ADVANCED_FACE('',(#101),#631,.T.);
#664=ADVANCED_FACE('',(#102,#34,#35),#632,.T.);
#665=ADVANCED_FACE('',(#103),#68,.F.);
#666=ADVANCED_FACE('',(#104),#69,.F.);
#667=ADVANCED_FACE('',(#105),#70,.F.);
#668=ADVANCED_FACE('',(#106),#71,.F.);
#669=ADVANCED_FACE('',(#107),#633,.T.);
#670=CLOSED_SHELL('',(#634,#635,#636,#637,#638,#639,#640,#641,#642,#643,
#644,#645,#646,#647,#648,#649,#650,#651,#652,#653,#654,#655,#656,#657,#658,
#659,#660,#661,#662,#663,#664,#665,#666,#667,#668,#669));
#671=DERIVED_UNIT_ELEMENT(#673,1.);
#672=DERIVED_UNIT_ELEMENT(#1116,-3.);
#673=(
MASS_UNIT()
NAMED_UNIT(*)
SI_UNIT(.KILO.,.GRAM.)
);
#674=DERIVED_UNIT((#671,#672));
#675=MEASURE_REPRESENTATION_ITEM('density measure',
POSITIVE_RATIO_MEASURE(7850.),#674);
#676=PROPERTY_DEFINITION_REPRESENTATION(#681,#678);
#677=PROPERTY_DEFINITION_REPRESENTATION(#682,#679);
#678=REPRESENTATION('material name',(#680),#1113);
#679=REPRESENTATION('density',(#675),#1113);
#680=DESCRIPTIVE_REPRESENTATION_ITEM('\X2\94A2\X0\','\X2\94A2\X0\');
#681=PROPERTY_DEFINITION('material property','material name',#1123);
#682=PROPERTY_DEFINITION('material property','density of part',#1123);
#683=AXIS2_PLACEMENT_3D('',#929,#744,#745);
#684=AXIS2_PLACEMENT_3D('',#930,#746,#747);
#685=AXIS2_PLACEMENT_3D('',#947,#756,#757);
#686=AXIS2_PLACEMENT_3D('',#949,#758,#759);
#687=AXIS2_PLACEMENT_3D('',#952,#761,#762);
#688=AXIS2_PLACEMENT_3D('',#953,#763,#764);
#689=AXIS2_PLACEMENT_3D('',#955,#765,#766);
#690=AXIS2_PLACEMENT_3D('',#956,#767,#768);
#691=AXIS2_PLACEMENT_3D('',#958,#769,#770);
#692=AXIS2_PLACEMENT_3D('',#961,#772,#773);
#693=AXIS2_PLACEMENT_3D('',#962,#774,#775);
#694=AXIS2_PLACEMENT_3D('',#964,#776,#777);
#695=AXIS2_PLACEMENT_3D('',#965,#778,#779);
#696=AXIS2_PLACEMENT_3D('',#967,#780,#781);
#697=AXIS2_PLACEMENT_3D('',#970,#783,#784);
#698=AXIS2_PLACEMENT_3D('',#971,#785,#786);
#699=AXIS2_PLACEMENT_3D('',#973,#787,#788);
#700=AXIS2_PLACEMENT_3D('',#974,#789,#790);
#701=AXIS2_PLACEMENT_3D('',#976,#791,#792);
#702=AXIS2_PLACEMENT_3D('',#979,#794,#795);
#703=AXIS2_PLACEMENT_3D('',#980,#796,#797);
#704=AXIS2_PLACEMENT_3D('',#982,#798,#799);
#705=AXIS2_PLACEMENT_3D('',#983,#800,#801);
#706=AXIS2_PLACEMENT_3D('',#1002,#811,#812);
#707=AXIS2_PLACEMENT_3D('',#1004,#813,#814);
#708=AXIS2_PLACEMENT_3D('',#1006,#815,#816);
#709=AXIS2_PLACEMENT_3D('',#1008,#817,#818);
#710=AXIS2_PLACEMENT_3D('',#1017,#823,#824);
#711=AXIS2_PLACEMENT_3D('',#1023,#828,#829);
#712=AXIS2_PLACEMENT_3D('',#1031,#834,#835);
#713=AXIS2_PLACEMENT_3D('',#1033,#836,#837);
#714=AXIS2_PLACEMENT_3D('',#1035,#838,#839);
#715=AXIS2_PLACEMENT_3D('',#1037,#840,#841);
#716=AXIS2_PLACEMENT_3D('',#1038,#842,#843);
#717=AXIS2_PLACEMENT_3D('',#1040,#845,#846);
#718=AXIS2_PLACEMENT_3D('',#1044,#849,#850);
#719=AXIS2_PLACEMENT_3D('',#1050,#854,#855);
#720=AXIS2_PLACEMENT_3D('',#1052,#856,#857);
#721=AXIS2_PLACEMENT_3D('',#1054,#859,#860);
#722=AXIS2_PLACEMENT_3D('',#1056,#861,#862);
#723=AXIS2_PLACEMENT_3D('',#1058,#864,#865);
#724=AXIS2_PLACEMENT_3D('',#1062,#868,#869);
#725=AXIS2_PLACEMENT_3D('',#1064,#871,#872);
#726=AXIS2_PLACEMENT_3D('',#1066,#874,#875);
#727=AXIS2_PLACEMENT_3D('',#1072,#879,#880);
#728=AXIS2_PLACEMENT_3D('',#1076,#883,#884);
#729=AXIS2_PLACEMENT_3D('',#1080,#887,#888);
#730=AXIS2_PLACEMENT_3D('',#1082,#890,#891);
#731=AXIS2_PLACEMENT_3D('',#1083,#892,#893);
#732=AXIS2_PLACEMENT_3D('',#1085,#894,#895);
#733=AXIS2_PLACEMENT_3D('',#1087,#897,#898);
#734=AXIS2_PLACEMENT_3D('',#1089,#899,#900);
#735=AXIS2_PLACEMENT_3D('',#1091,#902,#903);
#736=AXIS2_PLACEMENT_3D('',#1097,#907,#908);
#737=AXIS2_PLACEMENT_3D('',#1099,#910,#911);
#738=AXIS2_PLACEMENT_3D('',#1101,#913,#914);
#739=AXIS2_PLACEMENT_3D('',#1102,#915,#916);
#740=AXIS2_PLACEMENT_3D('',#1104,#918,#919);
#741=AXIS2_PLACEMENT_3D('',#1106,#921,#922);
#742=AXIS2_PLACEMENT_3D('',#1108,#924,#925);
#743=AXIS2_PLACEMENT_3D('',#1110,#927,#928);
#744=DIRECTION('axis',(0.,0.,1.));
#745=DIRECTION('refdir',(1.,0.,0.));
#746=DIRECTION('center_axis',(-1.13464793116691E-12,-1.,0.));
#747=DIRECTION('ref_axis',(0.,0.,-1.));
#748=DIRECTION('',(0.,0.,1.));
#749=DIRECTION('',(-1.,1.13391008719518E-12,0.));
#750=DIRECTION('',(0.,0.,-1.));
#751=DIRECTION('',(1.,-1.13391008719518E-12,0.));
#752=DIRECTION('',(0.,0.,1.));
#753=DIRECTION('',(-1.,1.13391008719518E-12,0.));
#754=DIRECTION('',(0.,0.,-1.));
#755=DIRECTION('',(-1.,1.13391008719518E-12,0.));
#756=DIRECTION('center_axis',(0.,0.,1.));
#757=DIRECTION('ref_axis',(1.,0.,0.));
#758=DIRECTION('center_axis',(0.,0.,1.));
#759=DIRECTION('ref_axis',(1.,0.,0.));
#760=DIRECTION('',(0.,0.,1.));
#761=DIRECTION('center_axis',(0.,0.,1.));
#762=DIRECTION('ref_axis',(1.,0.,0.));
#763=DIRECTION('center_axis',(0.,0.,-1.));
#764=DIRECTION('ref_axis',(1.,0.,0.));
#765=DIRECTION('center_axis',(0.,0.,-1.));
#766=DIRECTION('ref_axis',(-1.,0.,0.));
#767=DIRECTION('center_axis',(0.,0.,1.));
#768=DIRECTION('ref_axis',(1.,0.,0.));
#769=DIRECTION('center_axis',(0.,0.,1.));
#770=DIRECTION('ref_axis',(1.,0.,0.));
#771=DIRECTION('',(0.,0.,1.));
#772=DIRECTION('center_axis',(0.,0.,1.));
#773=DIRECTION('ref_axis',(1.,0.,0.));
#774=DIRECTION('center_axis',(0.,0.,-1.));
#775=DIRECTION('ref_axis',(1.,0.,0.));
#776=DIRECTION('center_axis',(0.,0.,-1.));
#777=DIRECTION('ref_axis',(-1.,0.,0.));
#778=DIRECTION('center_axis',(0.,0.,1.));
#779=DIRECTION('ref_axis',(1.,0.,0.));
#780=DIRECTION('center_axis',(0.,0.,1.));
#781=DIRECTION('ref_axis',(1.,0.,0.));
#782=DIRECTION('',(0.,0.,1.));
#783=DIRECTION('center_axis',(0.,0.,1.));
#784=DIRECTION('ref_axis',(1.,0.,0.));
#785=DIRECTION('center_axis',(0.,0.,-1.));
#786=DIRECTION('ref_axis',(1.,0.,0.));
#787=DIRECTION('center_axis',(0.,0.,-1.));
#788=DIRECTION('ref_axis',(-1.,0.,0.));
#789=DIRECTION('center_axis',(0.,0.,1.));
#790=DIRECTION('ref_axis',(1.,0.,0.));
#791=DIRECTION('center_axis',(0.,0.,1.));
#792=DIRECTION('ref_axis',(1.,0.,0.));
#793=DIRECTION('',(0.,0.,1.));
#794=DIRECTION('center_axis',(0.,0.,1.));
#795=DIRECTION('ref_axis',(1.,0.,0.));
#796=DIRECTION('center_axis',(0.,0.,-1.));
#797=DIRECTION('ref_axis',(1.,0.,0.));
#798=DIRECTION('center_axis',(0.,0.,-1.));
#799=DIRECTION('ref_axis',(-1.,0.,0.));
#800=DIRECTION('center_axis',(0.,0.,1.));
#801=DIRECTION('ref_axis',(1.,0.,0.));
#802=DIRECTION('',(3.17206578464331E-16,1.,0.));
#803=DIRECTION('',(1.,2.5947599249316E-15,0.));
#804=DIRECTION('',(6.14231272268413E-17,1.,0.));
#805=DIRECTION('',(1.,0.,0.));
#806=DIRECTION('',(0.,-1.,0.));
#807=DIRECTION('',(1.,0.,0.));
#808=DIRECTION('',(0.,-1.,0.));
#809=DIRECTION('',(1.,-9.32816193012969E-13,0.));
#810=DIRECTION('',(-9.13356691865732E-13,-1.,0.));
#811=DIRECTION('center_axis',(0.,0.,-1.));
#812=DIRECTION('ref_axis',(1.,0.,0.));
#813=DIRECTION('center_axis',(0.,0.,-1.));
#814=DIRECTION('ref_axis',(1.,0.,0.));
#815=DIRECTION('center_axis',(0.,0.,-1.));
#816=DIRECTION('ref_axis',(1.,0.,0.));
#817=DIRECTION('center_axis',(0.,0.,-1.));
#818=DIRECTION('ref_axis',(1.,0.,0.));
#819=DIRECTION('',(-1.,0.,0.));
#820=DIRECTION('',(0.,1.,0.));
#821=DIRECTION('',(1.,0.,0.));
#822=DIRECTION('',(0.,-1.,0.));
#823=DIRECTION('center_axis',(0.,1.,0.));
#824=DIRECTION('ref_axis',(1.,0.,0.));
#825=DIRECTION('',(-1.,0.,0.));
#826=DIRECTION('',(0.,0.,-1.));
#827=DIRECTION('',(0.,0.,1.));
#828=DIRECTION('center_axis',(0.,0.,1.));
#829=DIRECTION('ref_axis',(1.,0.,0.));
#830=DIRECTION('',(0.,1.,0.));
#831=DIRECTION('',(0.,-1.,0.));
#832=DIRECTION('',(1.,0.,0.));
#833=DIRECTION('',(0.,1.,0.));
#834=DIRECTION('center_axis',(0.,0.,-1.));
#835=DIRECTION('ref_axis',(1.,0.,0.));
#836=DIRECTION('center_axis',(0.,0.,-1.));
#837=DIRECTION('ref_axis',(1.,0.,0.));
#838=DIRECTION('center_axis',(0.,0.,-1.));
#839=DIRECTION('ref_axis',(1.,0.,0.));
#840=DIRECTION('center_axis',(0.,0.,-1.));
#841=DIRECTION('ref_axis',(1.,0.,0.));
#842=DIRECTION('center_axis',(-1.,0.,0.));
#843=DIRECTION('ref_axis',(0.,-1.,0.));
#844=DIRECTION('',(0.,0.,1.));
#845=DIRECTION('center_axis',(1.,0.,0.));
#846=DIRECTION('ref_axis',(0.,0.,-1.));
#847=DIRECTION('',(0.,0.,1.));
#848=DIRECTION('',(0.,-1.,0.));
#849=DIRECTION('center_axis',(-1.,6.14231272268413E-17,0.));
#850=DIRECTION('ref_axis',(-6.14231272268413E-17,-1.,0.));
#851=DIRECTION('',(0.,0.,-1.));
#852=DIRECTION('',(6.14231272268413E-17,1.,0.));
#853=DIRECTION('',(0.,0.,1.));
#854=DIRECTION('center_axis',(0.,0.,1.));
#855=DIRECTION('ref_axis',(-1.,0.,0.));
#856=DIRECTION('center_axis',(0.,0.,-1.));
#857=DIRECTION('ref_axis',(-1.,0.,0.));
#858=DIRECTION('',(0.,0.,-1.));
#859=DIRECTION('center_axis',(0.,0.,1.));
#860=DIRECTION('ref_axis',(-1.,0.,0.));
#861=DIRECTION('center_axis',(0.,0.,-1.));
#862=DIRECTION('ref_axis',(-1.,0.,0.));
#863=DIRECTION('',(0.,0.,-1.));
#864=DIRECTION('center_axis',(-1.,3.17206578464331E-16,0.));
#865=DIRECTION('ref_axis',(-3.17206578464331E-16,-1.,0.));
#866=DIRECTION('',(-3.17206578464331E-16,-1.,0.));
#867=DIRECTION('',(0.,0.,1.));
#868=DIRECTION('center_axis',(-2.5947599249316E-15,1.,0.));
#869=DIRECTION('ref_axis',(-1.,-2.5947599249316E-15,0.));
#870=DIRECTION('',(1.,0.,0.));
#871=DIRECTION('center_axis',(0.,0.,1.));
#872=DIRECTION('ref_axis',(-1.,0.,0.));
#873=DIRECTION('',(1.,0.,0.));
#874=DIRECTION('center_axis',(0.,-1.,0.));
#875=DIRECTION('ref_axis',(1.,0.,0.));
#876=DIRECTION('',(0.,0.,1.));
#877=DIRECTION('',(1.,0.,0.));
#878=DIRECTION('',(0.,0.,1.));
#879=DIRECTION('center_axis',(-1.,0.,0.));
#880=DIRECTION('ref_axis',(0.,-1.,0.));
#881=DIRECTION('',(0.,-1.,0.));
#882=DIRECTION('',(0.,0.,1.));
#883=DIRECTION('center_axis',(0.,1.,0.));
#884=DIRECTION('ref_axis',(-1.,0.,0.));
#885=DIRECTION('',(-1.,0.,0.));
#886=DIRECTION('',(0.,0.,1.));
#887=DIRECTION('center_axis',(1.,0.,0.));
#888=DIRECTION('ref_axis',(0.,1.,0.));
#889=DIRECTION('',(0.,1.,0.));
#890=DIRECTION('center_axis',(0.,0.,1.));
#891=DIRECTION('ref_axis',(1.,0.,0.));
#892=DIRECTION('center_axis',(0.,0.,1.));
#893=DIRECTION('ref_axis',(-1.,0.,0.));
#894=DIRECTION('center_axis',(0.,0.,-1.));
#895=DIRECTION('ref_axis',(-1.,0.,0.));
#896=DIRECTION('',(0.,0.,-1.));
#897=DIRECTION('center_axis',(0.,0.,1.));
#898=DIRECTION('ref_axis',(-1.,0.,0.));
#899=DIRECTION('center_axis',(0.,0.,-1.));
#900=DIRECTION('ref_axis',(-1.,0.,0.));
#901=DIRECTION('',(0.,0.,-1.));
#902=DIRECTION('center_axis',(9.32816193012969E-13,1.,0.));
#903=DIRECTION('ref_axis',(-1.,9.32816193012969E-13,0.));
#904=DIRECTION('',(0.,0.,1.));
#905=DIRECTION('',(-1.,9.32816193012969E-13,0.));
#906=DIRECTION('',(0.,0.,1.));
#907=DIRECTION('center_axis',(1.,-9.13356691865732E-13,0.));
#908=DIRECTION('ref_axis',(9.13356691865732E-13,1.,0.));
#909=DIRECTION('',(-1.13464793116691E-12,-1.,0.));
#910=DIRECTION('center_axis',(-1.,9.13475644332679E-13,0.));
#911=DIRECTION('ref_axis',(-9.13475644332679E-13,-1.,0.));
#912=DIRECTION('',(-9.13475644332679E-13,-1.,0.));
#913=DIRECTION('center_axis',(0.,0.,1.));
#914=DIRECTION('ref_axis',(-1.,0.,0.));
#915=DIRECTION('center_axis',(0.,0.,1.));
#916=DIRECTION('ref_axis',(1.,0.,0.));
#917=DIRECTION('',(0.,0.,-1.));
#918=DIRECTION('center_axis',(0.,0.,1.));
#919=DIRECTION('ref_axis',(1.,0.,0.));
#920=DIRECTION('',(0.,0.,-1.));
#921=DIRECTION('center_axis',(0.,0.,1.));
#922=DIRECTION('ref_axis',(1.,0.,0.));
#923=DIRECTION('',(0.,0.,-1.));
#924=DIRECTION('center_axis',(0.,0.,1.));
#925=DIRECTION('ref_axis',(1.,0.,0.));
#926=DIRECTION('',(0.,0.,-1.));
#927=DIRECTION('center_axis',(0.,1.,0.));
#928=DIRECTION('ref_axis',(-1.,0.,0.));
#929=CARTESIAN_POINT('',(0.,0.,0.));
#930=CARTESIAN_POINT('Origin',(-26.7283258769078,-102.298499999967,3.));
#931=CARTESIAN_POINT('',(-19.8823867889324,-102.298499999975,3.));
#932=CARTESIAN_POINT('',(-19.8823867889324,-102.298499999975,8.));
#933=CARTESIAN_POINT('',(-19.8823867889324,-102.298499999975,3.));
#934=CARTESIAN_POINT('',(-26.7283258769078,-102.298499999967,8.));
#935=CARTESIAN_POINT('',(-19.8823867889324,-102.298499999975,8.));
#936=CARTESIAN_POINT('',(-26.7283258769078,-102.298499999967,0.));
#937=CARTESIAN_POINT('',(-26.7283258769078,-102.298499999967,3.));
#938=CARTESIAN_POINT('',(42.1899999999989,-102.298500000045,0.));
#939=CARTESIAN_POINT('',(0.999999999941433,-102.298499999999,0.));
#940=CARTESIAN_POINT('',(42.1899999999989,-102.298500000045,8.));
#941=CARTESIAN_POINT('',(42.1899999999989,-102.298500000045,2.));
#942=CARTESIAN_POINT('',(31.2716741231305,-102.298499999998,8.));
#943=CARTESIAN_POINT('',(18.3473218335428,-102.298500000018,8.));
#944=CARTESIAN_POINT('',(31.2716741231305,-102.298499999998,3.));
#945=CARTESIAN_POINT('',(31.2716741231305,-102.298499999998,3.));
#946=CARTESIAN_POINT('',(0.999999999941433,-102.298499999999,3.));
#947=CARTESIAN_POINT('Origin',(34.6946436671153,-97.7969999999999,0.));
#948=CARTESIAN_POINT('',(31.6946436671153,-97.7969999999999,0.));
#949=CARTESIAN_POINT('Origin',(34.6946436671153,-97.7969999999999,0.));
#950=CARTESIAN_POINT('',(31.6946436671153,-97.7969999999999,3.5));
#951=CARTESIAN_POINT('',(31.6946436671153,-97.7969999999999,0.));
#952=CARTESIAN_POINT('Origin',(34.6946436671153,-97.7969999999999,3.5));
#953=CARTESIAN_POINT('Origin',(34.6946436671153,-97.7969999999999,3.5));
#954=CARTESIAN_POINT('',(36.1446436671153,-97.7969999999999,3.5));
#955=CARTESIAN_POINT('Origin',(34.6946436671153,-97.7969999999999,3.5));
#956=CARTESIAN_POINT('Origin',(34.6946436671244,-48.8,0.));
#957=CARTESIAN_POINT('',(31.6946436671244,-48.8,0.));
#958=CARTESIAN_POINT('Origin',(34.6946436671244,-48.8,0.));
#959=CARTESIAN_POINT('',(31.6946436671244,-48.8,3.5));
#960=CARTESIAN_POINT('',(31.6946436671244,-48.8,0.));
#961=CARTESIAN_POINT('Origin',(34.6946436671244,-48.8,3.5));
#962=CARTESIAN_POINT('Origin',(34.6946436671244,-48.8,3.5));
#963=CARTESIAN_POINT('',(36.1446436671244,-48.8,3.5));
#964=CARTESIAN_POINT('Origin',(34.6946436671244,-48.8,3.5));
#965=CARTESIAN_POINT('Origin',(-23.3053563328756,-97.797,0.));
#966=CARTESIAN_POINT('',(-26.3053563328756,-97.797,0.));
#967=CARTESIAN_POINT('Origin',(-23.3053563328756,-97.797,0.));
#968=CARTESIAN_POINT('',(-26.3053563328756,-97.797,3.5));
#969=CARTESIAN_POINT('',(-26.3053563328756,-97.797,0.));
#970=CARTESIAN_POINT('Origin',(-23.3053563328756,-97.797,3.5));
#971=CARTESIAN_POINT('Origin',(-23.3053563328756,-97.797,3.5));
#972=CARTESIAN_POINT('',(-21.8553563328756,-97.797,3.5));
#973=CARTESIAN_POINT('Origin',(-23.3053563328756,-97.797,3.5));
#974=CARTESIAN_POINT('Origin',(-23.3053563328756,-48.8,0.));
#975=CARTESIAN_POINT('',(-26.3053563328756,-48.8,0.));
#976=CARTESIAN_POINT('Origin',(-23.3053563328756,-48.8,0.));
#977=CARTESIAN_POINT('',(-26.3053563328756,-48.8,3.5));
#978=CARTESIAN_POINT('',(-26.3053563328756,-48.8,0.));
#979=CARTESIAN_POINT('Origin',(-23.3053563328756,-48.8,3.5));
#980=CARTESIAN_POINT('Origin',(-23.3053563328756,-48.8,3.5));
#981=CARTESIAN_POINT('',(-21.8553563328756,-48.8,3.5));
#982=CARTESIAN_POINT('Origin',(-23.3053563328756,-48.8,3.5));
#983=CARTESIAN_POINT('Origin',(0.,0.,3.));
#984=CARTESIAN_POINT('',(31.2716741231316,-45.2984999999983,3.));
#985=CARTESIAN_POINT('',(31.2716741231316,-22.6492499999991,3.));
#986=CARTESIAN_POINT('',(39.19,-45.2984999999983,3.));
#987=CARTESIAN_POINT('',(19.0588066055538,-45.2984999999983,3.));
#988=CARTESIAN_POINT('',(39.19,42.8,3.));
#989=CARTESIAN_POINT('',(39.19,21.4,3.));
#990=CARTESIAN_POINT('',(-38.19,42.8,3.));
#991=CARTESIAN_POINT('',(38.19,42.8,3.));
#992=CARTESIAN_POINT('',(-38.19,-43.2985,3.));
#993=CARTESIAN_POINT('',(-38.19,42.8,3.));
#994=CARTESIAN_POINT('',(-26.7283258769067,-43.2985,3.));
#995=CARTESIAN_POINT('',(-19.095,-43.2985,3.));
#996=CARTESIAN_POINT('',(-26.7283258768555,-45.2984999999687,3.));
#997=CARTESIAN_POINT('',(-26.7283258769067,-21.64925,3.));
#998=CARTESIAN_POINT('',(-19.8823867888801,-45.2984999999751,3.));
#999=CARTESIAN_POINT('',(-9.94119339446118,-45.2984999999844,3.));
#1000=CARTESIAN_POINT('',(-19.882386788885,-50.6492499999785,3.));
#1001=CARTESIAN_POINT('',(-22.2,30.,3.));
#1002=CARTESIAN_POINT('Origin',(-20.,30.,3.));
#1003=CARTESIAN_POINT('',(17.8,-30.,3.));
#1004=CARTESIAN_POINT('Origin',(20.,-30.,3.));
#1005=CARTESIAN_POINT('',(-22.2,-30.,3.));
#1006=CARTESIAN_POINT('Origin',(-20.,-30.,3.));
#1007=CARTESIAN_POINT('',(17.8,30.,3.));
#1008=CARTESIAN_POINT('Origin',(20.,30.,3.));
#1009=CARTESIAN_POINT('',(31.194643667124,-77.2985,3.));
#1010=CARTESIAN_POINT('',(-19.805356332876,-77.2985,3.));
#1011=CARTESIAN_POINT('',(-9.90267816643799,-77.2985,3.));
#1012=CARTESIAN_POINT('',(-19.805356332876,-69.2985,3.));
#1013=CARTESIAN_POINT('',(-19.805356332876,-34.64925,3.));
#1014=CARTESIAN_POINT('',(31.194643667124,-69.2985,3.));
#1015=CARTESIAN_POINT('',(15.597321833562,-69.2985,3.));
#1016=CARTESIAN_POINT('',(31.194643667124,-38.64925,3.));
#1017=CARTESIAN_POINT('Origin',(-38.19,-43.2985,3.));
#1018=CARTESIAN_POINT('',(-26.7283258769067,-43.2985,0.));
#1019=CARTESIAN_POINT('',(-38.19,-43.2985,0.));
#1020=CARTESIAN_POINT('',(-19.095,-43.2985,0.));
#1021=CARTESIAN_POINT('',(-26.7283258769067,-43.2985,3.));
#1022=CARTESIAN_POINT('',(-38.19,-43.2985,1.5));
#1023=CARTESIAN_POINT('Origin',(0.,0.,0.));
#1024=CARTESIAN_POINT('',(-26.7283258769067,-21.64925,0.));
#1025=CARTESIAN_POINT('',(-38.19,42.8,0.));
#1026=CARTESIAN_POINT('',(-38.19,42.8,0.));
#1027=CARTESIAN_POINT('',(42.19,42.8,0.));
#1028=CARTESIAN_POINT('',(38.19,42.8,0.));
#1029=CARTESIAN_POINT('',(42.19,-42.8,0.));
#1030=CARTESIAN_POINT('',(-22.2,30.,0.));
#1031=CARTESIAN_POINT('Origin',(-20.,30.,0.));
#1032=CARTESIAN_POINT('',(17.8,-30.,0.));
#1033=CARTESIAN_POINT('Origin',(20.,-30.,0.));
#1034=CARTESIAN_POINT('',(-22.2,-30.,0.));
#1035=CARTESIAN_POINT('Origin',(-20.,-30.,0.));
#1036=CARTESIAN_POINT('',(17.8,30.,0.));
#1037=CARTESIAN_POINT('Origin',(20.,30.,0.));
#1038=CARTESIAN_POINT('Origin',(-38.19,42.8,0.));
#1039=CARTESIAN_POINT('',(-38.19,42.8,0.));
#1040=CARTESIAN_POINT('Origin',(42.19,-42.8,0.));
#1041=CARTESIAN_POINT('',(42.19,42.8,8.));
#1042=CARTESIAN_POINT('',(42.19,42.8,0.));
#1043=CARTESIAN_POINT('',(42.19,-65.65,8.));
#1044=CARTESIAN_POINT('Origin',(39.19,42.8,3.));
#1045=CARTESIAN_POINT('',(39.19,-45.2984999999983,8.));
#1046=CARTESIAN_POINT('',(39.19,-45.2984999999983,3.));
#1047=CARTESIAN_POINT('',(39.19,42.8,8.));
#1048=CARTESIAN_POINT('',(39.19,6.65000000000001,8.));
#1049=CARTESIAN_POINT('',(39.19,42.8,3.));
#1050=CARTESIAN_POINT('Origin',(34.6946436671244,-48.8,3.));
#1051=CARTESIAN_POINT('',(36.1446436671244,-48.8,8.));
#1052=CARTESIAN_POINT('Origin',(34.6946436671244,-48.8,8.));
#1053=CARTESIAN_POINT('',(36.1446436671244,-48.8,3.));
#1054=CARTESIAN_POINT('Origin',(34.6946436671153,-97.7969999999999,3.));
#1055=CARTESIAN_POINT('',(36.1446436671153,-97.7969999999999,8.));
#1056=CARTESIAN_POINT('Origin',(34.6946436671153,-97.7969999999999,8.));
#1057=CARTESIAN_POINT('',(36.1446436671153,-97.7969999999999,3.));
#1058=CARTESIAN_POINT('Origin',(31.2716741231316,-45.2984999999983,3.));
#1059=CARTESIAN_POINT('',(31.2716741231316,-45.2984999999983,8.));
#1060=CARTESIAN_POINT('',(31.2716741231316,-45.2984999999983,8.));
#1061=CARTESIAN_POINT('',(31.2716741231316,-45.2984999999983,3.));
#1062=CARTESIAN_POINT('Origin',(38.1176132111075,-45.2984999999983,3.));
#1063=CARTESIAN_POINT('',(38.1176132111075,-45.2984999999983,8.));
#1064=CARTESIAN_POINT('Origin',(34.6946436671195,-73.2984999999983,8.));
#1065=CARTESIAN_POINT('',(40.69,42.8,8.));
#1066=CARTESIAN_POINT('Origin',(-19.805356332876,-77.2985,3.));
#1067=CARTESIAN_POINT('',(31.194643667124,-77.2985,8.));
#1068=CARTESIAN_POINT('',(31.194643667124,-77.2985,3.));
#1069=CARTESIAN_POINT('',(-19.805356332876,-77.2985,8.));
#1070=CARTESIAN_POINT('',(-19.805356332876,-77.2985,8.));
#1071=CARTESIAN_POINT('',(-19.805356332876,-77.2985,3.));
#1072=CARTESIAN_POINT('Origin',(-19.805356332876,-69.2985,3.));
#1073=CARTESIAN_POINT('',(-19.805356332876,-69.2985,8.));
#1074=CARTESIAN_POINT('',(-19.805356332876,-69.2985,8.));
#1075=CARTESIAN_POINT('',(-19.805356332876,-69.2985,3.));
#1076=CARTESIAN_POINT('Origin',(31.194643667124,-69.2985,3.));
#1077=CARTESIAN_POINT('',(31.194643667124,-69.2985,8.));
#1078=CARTESIAN_POINT('',(31.194643667124,-69.2985,8.));
#1079=CARTESIAN_POINT('',(31.194643667124,-69.2985,3.));
#1080=CARTESIAN_POINT('Origin',(31.194643667124,-77.2985,3.));
#1081=CARTESIAN_POINT('',(31.194643667124,-77.2985,8.));
#1082=CARTESIAN_POINT('Origin',(5.69464366712402,-73.2985,8.));
#1083=CARTESIAN_POINT('Origin',(-23.3053563328756,-97.797,3.));
#1084=CARTESIAN_POINT('',(-21.8553563328756,-97.797,8.));
#1085=CARTESIAN_POINT('Origin',(-23.3053563328756,-97.797,8.));
#1086=CARTESIAN_POINT('',(-21.8553563328756,-97.797,3.));
#1087=CARTESIAN_POINT('Origin',(-23.3053563328756,-48.8,3.));
#1088=CARTESIAN_POINT('',(-21.8553563328756,-48.8,8.));
#1089=CARTESIAN_POINT('Origin',(-23.3053563328756,-48.8,8.));
#1090=CARTESIAN_POINT('',(-21.8553563328756,-48.8,3.));
#1091=CARTESIAN_POINT('Origin',(-19.8823867888801,-45.2984999999751,3.));
#1092=CARTESIAN_POINT('',(-26.7283258768555,-45.2984999999687,8.));
#1093=CARTESIAN_POINT('',(-26.7283258768555,-45.2984999999687,3.));
#1094=CARTESIAN_POINT('',(-19.8823867888801,-45.2984999999751,8.));
#1095=CARTESIAN_POINT('',(-26.7283258768555,-45.2984999999687,8.));
#1096=CARTESIAN_POINT('',(-19.8823867888801,-45.2984999999751,3.));
#1097=CARTESIAN_POINT('Origin',(-19.8823867889312,-101.298499999975,3.));
#1098=CARTESIAN_POINT('',(-19.8823867889312,-101.298499999975,8.));
#1099=CARTESIAN_POINT('Origin',(-26.7283258768555,-45.2984999999687,3.));
#1100=CARTESIAN_POINT('',(-26.7283258769067,-101.298499999967,8.));
#1101=CARTESIAN_POINT('Origin',(-23.3053563328934,-73.2984999999719,8.));
#1102=CARTESIAN_POINT('Origin',(-20.,30.,0.));
#1103=CARTESIAN_POINT('',(-22.2,30.,0.));
#1104=CARTESIAN_POINT('Origin',(20.,-30.,0.));
#1105=CARTESIAN_POINT('',(17.8,-30.,0.));
#1106=CARTESIAN_POINT('Origin',(-20.,-30.,0.));
#1107=CARTESIAN_POINT('',(-22.2,-30.,0.));
#1108=CARTESIAN_POINT('Origin',(20.,30.,0.));
#1109=CARTESIAN_POINT('',(17.8,30.,0.));
#1110=CARTESIAN_POINT('Origin',(38.19,42.8,0.));
#1111=UNCERTAINTY_MEASURE_WITH_UNIT(LENGTH_MEASURE(0.01),#1115,
'DISTANCE_ACCURACY_VALUE',
'Maximum model space distance between geometric entities at asserted c
onnectivities');
#1112=UNCERTAINTY_MEASURE_WITH_UNIT(LENGTH_MEASURE(0.01),#1115,
'DISTANCE_ACCURACY_VALUE',
'Maximum model space distance between geometric entities at asserted c
onnectivities');
#1113=(
GEOMETRIC_REPRESENTATION_CONTEXT(3)
GLOBAL_UNCERTAINTY_ASSIGNED_CONTEXT((#1111))
GLOBAL_UNIT_ASSIGNED_CONTEXT((#1115,#1117,#1118))
REPRESENTATION_CONTEXT('','3D')
);
#1114=(
GEOMETRIC_REPRESENTATION_CONTEXT(3)
GLOBAL_UNCERTAINTY_ASSIGNED_CONTEXT((#1112))
GLOBAL_UNIT_ASSIGNED_CONTEXT((#1115,#1117,#1118))
REPRESENTATION_CONTEXT('','3D')
);
#1115=(
LENGTH_UNIT()
NAMED_UNIT(*)
SI_UNIT(.MILLI.,.METRE.)
);
#1116=(
LENGTH_UNIT()
NAMED_UNIT(*)
SI_UNIT($,.METRE.)
);
#1117=(
NAMED_UNIT(*)
PLANE_ANGLE_UNIT()
SI_UNIT($,.RADIAN.)
);
#1118=(
NAMED_UNIT(*)
SI_UNIT($,.STERADIAN.)
SOLID_ANGLE_UNIT()
);
#1119=SHAPE_DEFINITION_REPRESENTATION(#1120,#1121);
#1120=PRODUCT_DEFINITION_SHAPE('',$,#1123);
#1121=SHAPE_REPRESENTATION('',(#683),#1113);
#1122=PRODUCT_DEFINITION_CONTEXT('part definition',#1127,'design');
#1123=PRODUCT_DEFINITION('\X2\59278F6C63A5677F\X0\','\X2\59278F6C63A5677F\X0\ 
v2',#1124,#1122);
#1124=PRODUCT_DEFINITION_FORMATION('',$,#1129);
#1125=PRODUCT_RELATED_PRODUCT_CATEGORY('\X2\59278F6C63A5677F\X0\ v2',
'\X2\59278F6C63A5677F\X0\ v2',(#1129));
#1126=APPLICATION_PROTOCOL_DEFINITION('international standard',
'automotive_design',2009,#1127);
#1127=APPLICATION_CONTEXT(
'Core Data for Automotive Mechanical Design Process');
#1128=PRODUCT_CONTEXT('part definition',#1127,'mechanical');
#1129=PRODUCT('\X2\59278F6C63A5677F\X0\','\X2\59278F6C63A5677F\X0\ v2',
$,(#1128));
#1130=PRESENTATION_STYLE_ASSIGNMENT((#1131));
#1131=SURFACE_STYLE_USAGE(.BOTH.,#1132);
#1132=SURFACE_SIDE_STYLE('',(#1133));
#1133=SURFACE_STYLE_FILL_AREA(#1134);
#1134=FILL_AREA_STYLE('\X2\94A2\X0\ - \X2\7F0E5149\X0\',(#1135));
#1135=FILL_AREA_STYLE_COLOUR('\X2\94A2\X0\ - \X2\7F0E5149\X0\',#1136);
#1136=COLOUR_RGB('\X2\94A2\X0\ - \X2\7F0E5149\X0\',0.627450980392157,0.627450980392157,
0.627450980392157);
ENDSEC;
END-ISO-10303-21;
